<?xml version="1.0" encoding="utf-8"?>
<!-- Generator: Adobe Illustrator 17.0.0, SVG Export Plug-In . SVG Version: 6.00 Build 0)  -->
<!DOCTYPE svg PUBLIC "-//W3C//DTD SVG 1.1//EN" "http://www.w3.org/Graphics/SVG/1.1/DTD/svg11.dtd">
<svg version="1.1" id="Layer_1" xmlns="http://www.w3.org/2000/svg" xmlns:xlink="http://www.w3.org/1999/xlink" x="0px" y="0px"
	 width="2011.281px" height="457.791px" viewBox="0 0 2011.281 457.791" enable-background="new 0 0 2011.281 457.791"
	 xml:space="preserve">
<g>
	<polygon fill="#FFD111" points="152.597,457.791 305.194,305.194 0,305.194 	"/>
	
		<rect x="197.291" y="44.695" transform="matrix(0.7071 0.7071 -0.7071 0.7071 197.2915 -171.11)" fill="#0070BE" width="215.805" height="215.805"/>
	
		<rect x="349.888" y="197.291" transform="matrix(0.7071 0.7071 -0.7071 0.7071 349.8883 -234.3177)" fill="#33BA20" width="215.805" height="215.805"/>
	<polygon fill="#FF4B34" points="0,305.194 305.194,305.194 152.597,152.597 	"/>
</g>
<g>
	<path fill="#333333" d="M733.828,228.216h59.312v69.952c-2.717,2.115-5.964,3.961-9.734,5.546
		c-3.774,1.585-7.81,2.907-12.112,3.961c-4.301,1.054-8.715,1.886-13.243,2.491c-4.527,0.601-8.981,0.905-13.356,0.905
		c-10.867,0-20.941-1.624-30.222-4.868c-9.281-3.244-17.357-8.263-24.223-15.054c-6.869-6.791-12.264-15.355-16.186-25.694
		c-3.927-10.335-5.887-22.525-5.887-36.561c0-14.637,2.378-27.165,7.132-37.579c4.753-10.414,10.901-18.938,18.45-25.581
		c7.545-6.639,15.96-11.468,25.242-14.488c9.281-3.017,18.524-4.527,27.731-4.527c9.961,0,18.224,0.566,24.789,1.697
		c6.565,1.133,12.034,2.529,16.412,4.188l-5.432,19.243c-7.849-3.47-19.168-5.207-33.957-5.207c-6.792,0-13.548,1.058-20.261,3.169
		c-6.717,2.115-12.755,5.624-18.11,10.527c-5.359,4.906-9.699,11.319-13.017,19.242c-3.321,7.924-4.98,17.697-4.98,29.317
		c0,10.718,1.394,19.999,4.188,27.845c2.791,7.848,6.677,14.34,11.659,19.469c4.98,5.132,10.866,8.906,17.657,11.319
		c6.792,2.416,14.185,3.622,22.186,3.622c4.98,0,9.769-0.484,14.375-1.457c4.602-0.97,8.638-2.352,12.112-4.146v-39.673
		l-40.523-4.18V228.216z"/>
	<path fill="#333333" d="M869.657,227.537l-52.293-77.876h26.939l34.183,52.068l6.113,13.13l5.886-13.13l35.768-52.068h24.902
		l-53.878,76.291l56.368,82.175h-26.486l-37.806-55.237l-7.018-13.809l-6.339,13.809l-38.711,55.237h-24.901L869.657,227.537z"/>
	<path fill="#333333" d="M1080.87,301.337c-4.981,3.622-11.319,6.151-19.016,7.583c-7.697,1.433-15.847,2.151-24.449,2.151
		c-10.113,0-19.734-1.624-28.863-4.868c-9.133-3.244-17.17-8.224-24.11-14.941c-6.944-6.714-12.451-15.242-16.525-25.581
		c-4.075-10.335-6.113-22.599-6.113-36.787c0-14.789,2.264-27.392,6.792-37.806c4.527-10.413,10.414-18.902,17.657-25.468
		c7.244-6.565,15.395-11.354,24.45-14.375c9.055-3.017,18.033-4.527,26.939-4.527c9.96,0,18.11,0.531,24.449,1.585
		c6.339,1.057,11.694,2.416,16.073,4.075l-4.98,19.469c-7.396-3.47-18.641-5.207-33.731-5.207c-6.791,0-13.395,1.096-19.808,3.283
		c-6.416,2.19-12.15,5.737-17.205,10.64c-5.059,4.906-9.094,11.319-12.111,19.243c-3.022,7.924-4.528,17.622-4.528,29.089
		c0,10.265,1.433,19.282,4.301,27.053c2.865,7.775,6.827,14.262,11.885,19.469c5.056,5.206,11.016,9.133,17.885,11.772
		c6.865,2.642,14.375,3.961,22.524,3.961c7.393,0,13.809-0.679,19.243-2.038c5.432-1.358,10.035-3.091,13.809-5.206L1080.87,301.337
		z"/>
	<path fill="#333333" d="M1198.383,252.438l3.598,26.487h0.452l4.075-26.939l35.09-102.324h11.319l35.315,102.777l4.075,26.487
		h0.446l4.241-26.939l27.686-102.324h22.638l-48.218,160.73h-12.904l-34.636-103.003l-4.754-23.997h-1.131l-4.528,24.223
		l-34.636,102.777h-13.13l-49.125-160.73h23.997L1198.383,252.438z"/>
	<path fill="#333333" d="M1445.95,266.247h-62.12l-16.594,41.881h-22.638l65.198-160.73h11.771l65.424,160.73h-23.996
		L1445.95,266.247z M1390.558,247.684h48.891l-18.167-45.049l-6.055-24.223h-0.449l-6.055,24.675L1390.558,247.684z"/>
	<path fill="#333333" d="M1612.63,308.128h-103.682V149.662h22.638v138.544h81.044V308.128z"/>
	<path fill="#333333" d="M1740.76,308.128h-103.682V149.662h22.638v138.544h81.044V308.128z"/>
	<path fill="#333333" d="M1765.209,149.662h95.758v19.922h-73.12v47.766h66.783v19.922h-66.783v50.935h74.253v19.922h-96.891
		V149.662z"/>
	<path fill="#333333" d="M2011.281,169.584h-53.426v138.544h-22.638V169.584h-53.426v-19.922h129.49V169.584z"/>
</g>
</svg>
